<svg xmlns="http://www.w3.org/2000/svg" width="1100" height="720" viewBox="0 0 1100 720" role="img" aria-labelledby="title desc">
  <title id="title">CRM architecture diagram</title>
  <desc id="desc">Structured blocks connecting data, CRM, automation, pipeline and reporting.</desc>
  <rect width="1100" height="720" rx="42" fill="#0B1821"/>
  <g fill="none" stroke="#314653" stroke-width="1"><path d="M80 120h940M80 240h940M80 360h940M80 480h940M80 600h940"/><path d="M180 80v560M360 80v560M540 80v560M720 80v560M900 80v560"/></g>
  <g font-family="Space Grotesk, sans-serif" font-size="22" font-weight="700">
    <rect x="90" y="100" width="230" height="110" rx="24" fill="#112632" stroke="#9BE1E5" stroke-opacity=".45"/>
    <text x="120" y="164" fill="#F5F1E8">Data model</text>
    <rect x="435" y="100" width="230" height="110" rx="24" fill="#112632" stroke="#E7304D" stroke-opacity=".5"/>
    <text x="474" y="164" fill="#F5F1E8">CRM logic</text>
    <rect x="780" y="100" width="230" height="110" rx="24" fill="#112632" stroke="#9BE1E5" stroke-opacity=".45"/>
    <text x="820" y="164" fill="#F5F1E8">Reporting</text>
    <rect x="260" y="330" width="250" height="120" rx="26" fill="#132B38" stroke="#45636F"/>
    <text x="302" y="398" fill="#F5F1E8">Automation</text>
    <rect x="590" y="330" width="250" height="120" rx="26" fill="#132B38" stroke="#45636F"/>
    <text x="642" y="398" fill="#F5F1E8">Pipeline</text>
  </g>
  <g fill="none" stroke="#9BE1E5" stroke-width="3" stroke-linecap="round" stroke-dasharray="12 14">
    <path d="M320 155h115M665 155h115M385 330V210M715 330V210M510 390h80"/>
  </g>
  <g fill="#E7304D"><circle cx="435" cy="155" r="7"/><circle cx="665" cy="155" r="7"/><circle cx="385" cy="330" r="7"/><circle cx="715" cy="330" r="7"/></g>
</svg>
