<svg width="201" height="56" viewBox="0 0 201 56" fill="none" xmlns="http://www.w3.org/2000/svg">
<path d="M71.6642 40.365H65.2505L58.8172 30.4101C57.899 30.4625 57.3482 30.4888 57.1645 30.4888H52.4035V40.365H46.7571V10.6182H57.1645C60.9944 10.6182 64.0438 11.5297 66.3129 13.3528C68.5951 15.1628 69.7361 17.5827 69.7361 20.6125C69.7361 22.5405 69.2509 24.239 68.2803 25.708C67.3097 27.1639 65.926 28.2984 64.1291 29.1116L71.6642 40.365ZM52.4035 25.5703H57.1645C59.4598 25.5703 61.1846 25.1506 62.3388 24.3112C63.5061 23.4586 64.0897 22.2257 64.0897 20.6125C64.0897 18.9992 63.5126 17.7794 62.3584 16.9531C61.2042 16.1137 59.4729 15.694 57.1645 15.694H52.4035V25.5703Z" fill="white"/>
<path d="M73.1004 29.5247C73.061 27.4262 73.5463 25.4982 74.5562 23.7406C75.5793 21.97 76.9827 20.5862 78.7664 19.5894C80.5502 18.5795 82.5045 18.0877 84.6292 18.1139C86.8065 18.1139 88.7739 18.6123 90.5314 19.6091C92.302 20.6059 93.6792 21.9765 94.6629 23.721C95.6466 25.4522 96.1384 27.3868 96.1384 29.5247C96.1384 31.1249 95.8499 32.6332 95.2728 34.0497C94.6957 35.4531 93.9022 36.6598 92.8923 37.6697C91.8823 38.6665 90.6626 39.4535 89.2329 40.0306C87.8033 40.6208 86.2687 40.9159 84.6292 40.9159C82.5045 40.9421 80.5502 40.4503 78.7664 39.4404C76.9827 38.4436 75.5793 37.0664 74.5562 35.3088C73.5463 33.5513 73.061 31.6233 73.1004 29.5247ZM90.9052 29.5247C90.9052 27.6492 90.3215 26.0884 89.1542 24.8424C87.9869 23.5832 86.4786 22.9537 84.6292 22.9537C82.8061 22.9537 81.3044 23.5832 80.1239 24.8424C78.9566 26.0884 78.373 27.6492 78.373 29.5247C78.373 31.4003 78.9501 32.9545 80.1043 34.1874C81.2585 35.4203 82.7668 36.0368 84.6292 36.0368C86.4786 36.0368 87.9804 35.4203 89.1346 34.1874C90.315 32.9283 90.9052 31.3741 90.9052 29.5247Z" fill="white"/>
<path d="M115.34 35.1908L116.56 39.5977C115.943 40.0043 115.15 40.3257 114.179 40.5618C113.209 40.7979 112.225 40.9159 111.228 40.9159C108.553 40.9159 106.52 40.1552 105.129 38.6337C103.739 37.1123 103.044 34.8629 103.044 31.8856V23.4652H98.4206V18.6844H103.044V12.92H108.533V18.6844H115.753V23.4652H108.533V31.8463C108.533 33.2234 108.822 34.2661 109.399 34.9744C109.976 35.6827 110.828 36.0368 111.956 36.0368C113.176 36.0368 114.304 35.7548 115.34 35.1908Z" fill="white"/>
<path d="M136.627 18.6844H142.156V40.365H136.627V37.2959C135.906 38.4763 134.935 39.3748 133.715 39.9912C132.496 40.6077 131.119 40.9159 129.584 40.9159C126.58 40.9159 124.069 39.8207 122.049 37.6304C120.029 35.44 119.019 32.7381 119.019 29.5247C119.006 27.9639 119.268 26.4753 119.806 25.0588C120.344 23.6423 121.078 22.4225 122.01 21.3994C122.954 20.3633 124.082 19.5501 125.393 18.9599C126.718 18.3697 128.115 18.0877 129.584 18.1139C131.119 18.1139 132.496 18.4221 133.715 19.0386C134.935 19.6419 135.906 20.5272 136.627 21.6945V18.6844ZM134.896 34.3055C136.05 33.0988 136.627 31.5052 136.627 29.5247C136.627 27.5442 136.05 25.9507 134.896 24.744C133.755 23.5242 132.279 22.9143 130.469 22.9143C128.659 22.9143 127.164 23.5439 125.984 24.803C124.856 26.049 124.292 27.6229 124.292 29.5247C124.292 31.4134 124.869 32.9873 126.023 34.2465C127.177 35.4925 128.659 36.1155 130.469 36.1155C132.279 36.1155 133.755 35.5121 134.896 34.3055Z" fill="white"/>
<path d="M162.518 35.1908L163.738 39.5977C163.121 40.0043 162.328 40.3257 161.357 40.5618C160.387 40.7979 159.403 40.9159 158.406 40.9159C155.731 40.9159 153.698 40.1552 152.307 38.6337C150.917 37.1123 150.222 34.8629 150.222 31.8856V23.4652H145.599V18.6844H150.222V12.92H155.711V18.6844H162.931V23.4652H155.711V31.8463C155.711 33.2234 155.999 34.2661 156.577 34.9744C157.154 35.6827 158.006 36.0368 159.134 36.0368C160.354 36.0368 161.482 35.7548 162.518 35.1908Z" fill="white"/>
<path d="M183.805 18.6844H189.333V40.365H183.805V37.2959C183.084 38.4763 182.113 39.3748 180.893 39.9912C179.674 40.6077 178.296 40.9159 176.762 40.9159C173.758 40.9159 171.247 39.8207 169.227 37.6304C167.207 35.44 166.197 32.7381 166.197 29.5247C166.184 27.9639 166.446 26.4753 166.984 25.0588C167.522 23.6423 168.256 22.4225 169.187 21.3994C170.132 20.3633 171.26 19.5501 172.571 18.9599C173.896 18.3697 175.293 18.0877 176.762 18.1139C178.296 18.1139 179.674 18.4221 180.893 19.0386C182.113 19.6419 183.084 20.5272 183.805 21.6945V18.6844ZM182.074 34.3055C183.228 33.0988 183.805 31.5052 183.805 29.5247C183.805 27.5442 183.228 25.9507 182.074 24.744C180.933 23.5242 179.457 22.9143 177.647 22.9143C175.837 22.9143 174.342 23.5439 173.162 24.803C172.034 26.049 171.47 27.6229 171.47 29.5247C171.47 31.4134 172.047 32.9873 173.201 34.2465C174.355 35.4925 175.837 36.1155 177.647 36.1155C179.457 36.1155 180.933 35.5121 182.074 34.3055Z" fill="white"/>
<path d="M194.803 39.8929C194.121 39.2239 193.78 38.3976 193.78 37.414C193.78 36.4303 194.121 35.604 194.803 34.935C195.485 34.253 196.337 33.912 197.36 33.912C198.397 33.912 199.262 34.253 199.957 34.935C200.652 35.604 201 36.4303 201 37.414C201 38.3976 200.652 39.2239 199.957 39.8929C199.262 40.5749 198.397 40.9159 197.36 40.9159C196.337 40.9159 195.485 40.5749 194.803 39.8929Z" fill="white"/>
<path d="M121.855 52.5558L121.153 50.7191H117.474L116.772 52.5558H115.067L118.489 43.931H120.183L123.606 52.5558H121.855ZM117.999 49.3386H120.622L119.316 45.8819L117.999 49.3386Z" fill="white"/>
<path d="M126.241 43.931V52.5558H124.593V43.931H126.241Z" fill="white"/>
<path d="M130.405 48.2434C130.394 47.4106 130.578 46.65 130.959 45.9617C131.343 45.2696 131.873 44.7277 132.55 44.336C133.227 43.9405 133.972 43.7504 134.786 43.7656C135.57 43.7656 136.284 43.9424 136.931 44.2961C137.577 44.6497 138.093 45.1289 138.477 45.7335L137.068 46.5378C136.828 46.1462 136.511 45.8438 136.115 45.6309C135.72 45.4179 135.277 45.3114 134.786 45.3114C133.988 45.3114 133.332 45.5909 132.818 46.15C132.309 46.709 132.054 47.4068 132.054 48.2434C132.054 49.08 132.309 49.7779 132.818 50.3369C133.332 50.8959 133.988 51.1754 134.786 51.1754C135.269 51.1754 135.706 51.0689 136.098 50.856C136.49 50.6392 136.813 50.3369 137.068 49.949L138.477 50.7419C138.097 51.3541 137.585 51.8352 136.942 52.1851C136.303 52.5387 135.585 52.7156 134.786 52.7156C133.972 52.7308 133.227 52.5406 132.55 52.1451C131.873 51.7496 131.343 51.2077 130.959 50.5194C130.578 49.8273 130.394 49.0686 130.405 48.2434Z" fill="white"/>
<path d="M139.156 49.4128C139.144 48.8043 139.285 48.2453 139.578 47.7357C139.874 47.2224 140.281 46.8212 140.798 46.5321C141.316 46.2393 141.882 46.0967 142.498 46.1043C143.13 46.1043 143.7 46.2488 144.21 46.5378C144.723 46.8269 145.122 47.2243 145.407 47.73C145.693 48.232 145.835 48.7929 145.835 49.4128C145.835 49.8767 145.752 50.3141 145.584 50.7248C145.417 51.1317 145.187 51.4815 144.894 51.7743C144.601 52.0634 144.248 52.2915 143.833 52.4589C143.419 52.63 142.974 52.7156 142.498 52.7156C141.882 52.7232 141.316 52.5806 140.798 52.2877C140.281 51.9987 139.874 51.5994 139.578 51.0898C139.285 50.5803 139.144 50.0212 139.156 49.4128ZM144.318 49.4128C144.318 48.869 144.149 48.4164 143.81 48.0552C143.472 47.6901 143.035 47.5076 142.498 47.5076C141.97 47.5076 141.534 47.6901 141.192 48.0552C140.854 48.4164 140.684 48.869 140.684 49.4128C140.684 49.9566 140.852 50.4072 141.186 50.7647C141.521 51.1222 141.958 51.3009 142.498 51.3009C143.035 51.3009 143.47 51.1222 143.805 50.7647C144.147 50.3996 144.318 49.949 144.318 49.4128Z" fill="white"/>
<path d="M157.267 49.0021V52.5558H155.675V49.1162C155.675 48.5876 155.567 48.1864 155.35 47.9126C155.137 47.635 154.829 47.4962 154.426 47.4962C154.011 47.4962 153.667 47.6635 153.393 47.9981C153.123 48.329 152.988 48.753 152.988 49.2702V52.5558H151.391V49.1162C151.391 48.5876 151.283 48.1864 151.066 47.9126C150.853 47.635 150.545 47.4962 150.142 47.4962C149.72 47.4962 149.376 47.6635 149.11 47.9981C148.84 48.3366 148.705 48.7606 148.705 49.2702V52.5558H147.113V46.2697H148.705V47.1653C148.876 46.8383 149.121 46.5797 149.44 46.3895C149.76 46.1994 150.117 46.1043 150.513 46.1043C151 46.1043 151.422 46.2089 151.779 46.4181C152.14 46.6272 152.424 46.9314 152.629 47.3307C152.842 46.9467 153.131 46.6462 153.496 46.4295C153.861 46.2127 154.285 46.1043 154.768 46.1043C155.544 46.1043 156.154 46.3629 156.599 46.8801C157.044 47.3935 157.267 48.1008 157.267 49.0021Z" fill="white"/>
<path d="M165.504 49.4128C165.515 50.0174 165.388 50.5746 165.121 51.0841C164.855 51.5899 164.484 51.9892 164.009 52.282C163.537 52.5787 163.015 52.7232 162.44 52.7156C161.992 52.7156 161.59 52.6243 161.237 52.4417C160.887 52.2592 160.607 51.9968 160.398 51.6546V55.0429H158.807V46.2697H160.398V47.1539C160.607 46.8116 160.889 46.5512 161.242 46.3724C161.596 46.1937 161.995 46.1043 162.44 46.1043C163.011 46.0929 163.534 46.2355 164.009 46.5321C164.484 46.825 164.855 47.2281 165.121 47.7414C165.388 48.251 165.515 48.8081 165.504 49.4128ZM163.986 49.4128C163.986 48.8614 163.817 48.405 163.479 48.0438C163.136 47.6787 162.705 47.4962 162.184 47.4962C161.659 47.4962 161.231 47.673 160.9 48.0267C160.573 48.3765 160.41 48.8386 160.41 49.4128C160.41 49.987 160.573 50.4491 160.9 50.7989C161.231 51.1488 161.659 51.3237 162.184 51.3237C162.708 51.3237 163.14 51.1431 163.479 50.7818C163.817 50.4167 163.986 49.9604 163.986 49.4128Z" fill="white"/>
<path d="M171.561 46.2697H173.164V52.5558H171.561V51.666C171.352 52.0082 171.071 52.2687 170.717 52.4475C170.364 52.6262 169.964 52.7156 169.519 52.7156C168.648 52.7156 167.92 52.398 167.335 51.7629C166.749 51.1279 166.456 50.3445 166.456 49.4128C166.452 48.9603 166.528 48.5286 166.684 48.1179C166.84 47.7072 167.053 47.3536 167.323 47.0569C167.597 46.7565 167.924 46.5207 168.304 46.3496C168.688 46.1785 169.093 46.0967 169.519 46.1043C169.964 46.1043 170.364 46.1937 170.717 46.3724C171.071 46.5474 171.352 46.804 171.561 47.1425V46.2697ZM171.06 50.7989C171.394 50.4491 171.561 49.987 171.561 49.4128C171.561 48.8386 171.394 48.3765 171.06 48.0267C170.729 47.673 170.301 47.4962 169.776 47.4962C169.251 47.4962 168.818 47.6787 168.475 48.0438C168.148 48.405 167.985 48.8614 167.985 49.4128C167.985 49.9604 168.152 50.4167 168.487 50.7818C168.822 51.1431 169.251 51.3237 169.776 51.3237C170.301 51.3237 170.729 51.1488 171.06 50.7989Z" fill="white"/>
<path d="M180.939 49.0021V52.5558H179.336V49.1162C179.336 48.58 179.217 48.1769 178.977 47.9069C178.737 47.6331 178.386 47.4962 177.922 47.4962C177.458 47.4962 177.076 47.6616 176.775 47.9924C176.475 48.3195 176.325 48.7454 176.325 49.2702V52.5558H174.733V46.2697H176.325V47.1653C176.507 46.8383 176.771 46.5797 177.117 46.3895C177.467 46.1994 177.861 46.1043 178.298 46.1043C179.12 46.1043 179.764 46.3591 180.232 46.8687C180.703 47.3783 180.939 48.0894 180.939 49.0021Z" fill="white"/>
<path d="M186.849 46.2697H188.532L185.805 52.6699C185.39 53.6244 184.959 54.2785 184.51 54.6322C184.058 55.0049 183.544 55.1912 182.97 55.1912C182.449 55.1912 181.974 55.0866 181.544 54.8775L181.903 53.594C182.223 53.7271 182.538 53.7937 182.85 53.7937C183.181 53.7937 183.457 53.7081 183.677 53.537C183.898 53.3658 184.09 53.0768 184.253 52.6699L184.299 52.5558L181.498 46.2697H183.215L185.069 50.6506L186.849 46.2697Z" fill="white"/>
<path d="M18.5044 9.54274C16.4223 10.7727 14.7795 12.1918 13.5228 13.7103C13.7206 13.9315 13.9187 14.1525 14.1169 14.3736C16.257 16.7608 18.3943 19.145 19.9028 21.653C20.9152 23.3361 21.6594 25.0968 21.9525 26.9813L23.3561 22.6427C24.1086 19.3611 23.2722 16.5051 21.6188 13.7563C20.7557 12.3214 19.6823 10.9336 18.5044 9.54274Z" fill="white"/>
<path d="M24.6952 18.5037L28.76 5.93897C25.0896 6.60727 22.0493 7.65325 19.5656 8.9526C20.7175 10.3245 21.7809 11.7131 22.6403 13.1418C23.6587 14.835 24.4057 16.6065 24.6952 18.5037Z" fill="white"/>
<path d="M17.5555 40.5728L20.6537 30.9962C21.344 27.7806 20.5082 24.9721 18.8813 22.2674C17.4371 19.8663 15.4036 17.5971 13.2775 15.2244C13.1138 15.0418 12.9496 14.8585 12.7851 14.6745C10.202 18.3371 9.69716 22.4465 10.5801 25.833C11.1705 28.0976 12.3671 29.5775 13.6073 31.1112C15.3927 33.3193 17.2684 35.6389 17.5555 40.5728Z" fill="white"/>
<path d="M25.1468 36.2147C24.712 35.8704 24.3311 35.4619 24.018 35.004C22.9014 34.9828 21.773 34.8398 20.6501 34.566L18.5812 40.9062C20.8914 38.0867 23.0648 36.9256 25.1468 36.2147Z" fill="white"/>
<path d="M24.1658 23.7935C24.1732 23.7938 24.1807 23.794 24.1881 23.7942C26.5567 23.8591 28.5295 21.9916 28.5944 19.623C28.636 18.1042 27.8831 16.7483 26.7131 15.9536L26.2427 17.4015C26.8293 17.942 27.188 18.7237 27.1644 19.5838C27.1249 21.0242 26.027 22.1866 24.6359 22.3465L24.1658 23.7935Z" fill="white"/>
<path d="M21.0341 33.4323C21.8198 33.6178 22.6081 33.734 23.3922 33.7849C23.3048 33.5443 23.2338 33.2961 23.1805 33.0415C23.1749 33.0147 23.1694 32.9877 23.1642 32.9607C23.139 32.8307 23.1185 32.6991 23.1028 32.5661C22.5372 32.5135 21.9699 32.4234 21.4039 32.2942L21.0341 33.4323Z" fill="white"/>
<path d="M21.7739 31.1554C22.213 31.2513 22.6528 31.3215 23.0916 31.3669C23.286 29.4075 24.5069 27.7625 26.1975 26.9592L25.5589 25.0887C25.1062 25.19 24.6338 25.2374 24.149 25.224C24.0013 25.22 23.855 25.2104 23.7104 25.1954L21.7739 31.1554Z" fill="white"/>
<path d="M26.6884 24.7077L27.3237 26.5685C27.7642 26.4681 28.2243 26.4208 28.6968 26.4338C30.2088 26.4752 31.5611 27.125 32.5254 28.1425C32.7113 27.966 32.8918 27.783 33.0667 27.5939C31.9403 26.5576 31.2514 25.0579 31.2967 23.4076C31.3057 23.0767 31.344 22.7535 31.4088 22.4403L29.5338 21.8311C28.9667 23.1048 27.9491 24.1292 26.6884 24.7077Z" fill="white"/>
<path d="M29.9017 20.6972C29.9422 20.5061 29.9731 20.3113 29.994 20.1135C30.0097 19.9649 30.0198 19.8144 30.024 19.6624C30.0534 18.5874 29.7843 17.5738 29.2921 16.7006L30.9017 15.5672C31.8732 16.6785 33.2879 17.3965 34.8798 17.4402C35.274 17.451 35.6596 17.4199 36.0324 17.351C36.0788 17.6026 36.1172 17.8561 36.1475 18.1112C34.2023 18.3335 32.5558 19.5781 31.7767 21.3064L29.9017 20.6972Z" fill="white"/>
<path d="M27.1687 14.5519C27.709 14.8649 28.1928 15.2635 28.6019 15.7287L30.2189 14.5901C29.7678 13.7666 29.5224 12.8162 29.5499 11.81C29.576 10.8559 29.8445 9.96533 30.2947 9.19577C29.9132 8.97474 29.5164 8.77311 29.1049 8.59279L27.1687 14.5519Z" fill="white"/>
<path d="M33.7677 30.2372C33.6386 29.8354 33.4643 29.4533 33.2506 29.0972C33.5216 28.8449 33.7824 28.5807 34.0324 28.3047C34.3912 28.5126 34.7761 28.681 35.1812 28.8041C34.7423 29.317 34.2696 29.7955 33.7677 30.2372Z" fill="white"/>
<path d="M38.5696 18.3757C38.1804 18.2411 37.771 18.149 37.3467 18.1051C37.3068 17.735 37.251 17.3678 37.1802 17.0045C37.5674 16.8391 37.9322 16.6303 38.2681 16.384C38.4147 17.0369 38.516 17.7023 38.5696 18.3757Z" fill="white"/>
<path d="M31.9607 7.41728C31.6134 7.65232 31.2943 7.92627 31.0097 8.23295C30.5211 7.94298 30.009 7.68221 29.475 7.45396L29.8447 6.31592C30.5898 6.62778 31.2963 6.99724 31.9607 7.41728Z" fill="white"/>
<path fill-rule="evenodd" clip-rule="evenodd" d="M33.7087 16.0432C35.9628 16.7756 38.3838 15.542 39.1162 13.2879C39.8487 11.0338 38.6151 8.61274 36.361 7.88033C34.1069 7.14793 31.6858 8.38151 30.9534 10.6356C30.221 12.8897 31.4546 15.3108 33.7087 16.0432ZM34.1508 14.6827C35.6535 15.171 37.2675 14.3486 37.7558 12.8459C38.2441 11.3431 37.4217 9.7291 35.9189 9.24083C34.4162 8.75256 32.8022 9.57495 32.3139 11.0777C31.8256 12.5804 32.648 14.1945 34.1508 14.6827Z" fill="white"/>
<path fill-rule="evenodd" clip-rule="evenodd" d="M35.4553 27.6408C37.7094 28.3732 40.1304 27.1397 40.8628 24.8855C41.5952 22.6314 40.3617 20.2104 38.1075 19.478C35.8534 18.7456 33.4324 19.9792 32.7 22.2333C31.9676 24.4874 33.2012 26.9084 35.4553 27.6408ZM35.8974 26.2802C37.4002 26.7684 39.0142 25.946 39.5025 24.4433C39.9907 22.9406 39.1683 21.3265 37.6656 20.8383C36.1629 20.35 34.5488 21.1724 34.0606 22.6751C33.5723 24.1779 34.3947 25.7919 35.8974 26.2802Z" fill="white"/>
<path fill-rule="evenodd" clip-rule="evenodd" d="M27.2253 35.9968C29.4794 36.7292 31.9004 35.4956 32.6329 33.2415C33.3653 30.9874 32.1317 28.5664 29.8776 27.8339C27.6235 27.1015 25.2024 28.3351 24.47 30.5892C23.7376 32.8433 24.9712 35.2644 27.2253 35.9968ZM27.6674 34.6362C29.1701 35.1245 30.7841 34.3021 31.2724 32.7993C31.7607 31.2966 30.9383 29.6826 29.4355 29.1943C27.9328 28.706 26.3188 29.5284 25.8305 31.0312C25.3422 32.5339 26.1646 34.1479 27.6674 34.6362Z" fill="white"/>
</svg>
