<svg width="201" height="56" viewBox="0 0 201 56" fill="none" xmlns="http://www.w3.org/2000/svg">
<path d="M71.6641 40.365H65.2504L58.817 30.4101C57.8989 30.4625 57.348 30.4888 57.1644 30.4888H52.4034V40.365H46.757V10.6182H57.1644C60.9943 10.6182 64.0437 11.5297 66.3128 13.3528C68.5949 15.1628 69.736 17.5827 69.736 20.6125C69.736 22.5405 69.2507 24.239 68.2802 25.708C67.3096 27.1639 65.9258 28.2984 64.129 29.1116L71.6641 40.365ZM52.4034 25.5703H57.1644C59.4597 25.5703 61.1844 25.1506 62.3386 24.3112C63.506 23.4586 64.0896 22.2257 64.0896 20.6125C64.0896 18.9992 63.5125 17.7794 62.3583 16.9531C61.2041 16.1137 59.4728 15.694 57.1644 15.694H52.4034V25.5703Z" fill="black"/>
<path d="M73.1002 29.5247C73.0609 27.4262 73.5462 25.4982 74.5561 23.7406C75.5791 21.97 76.9826 20.5862 78.7663 19.5894C80.5501 18.5795 82.5043 18.0877 84.6291 18.1139C86.8064 18.1139 88.7737 18.6123 90.5313 19.6091C92.3019 20.6059 93.6791 21.9765 94.6628 23.721C95.6465 25.4522 96.1383 27.3868 96.1383 29.5247C96.1383 31.1249 95.8498 32.6332 95.2727 34.0497C94.6956 35.4531 93.9021 36.6598 92.8921 37.6697C91.8822 38.6665 90.6624 39.4535 89.2328 40.0306C87.8032 40.6208 86.2686 40.9159 84.6291 40.9159C82.5043 40.9421 80.5501 40.4503 78.7663 39.4404C76.9826 38.4436 75.5791 37.0664 74.5561 35.3088C73.5462 33.5513 73.0609 31.6233 73.1002 29.5247ZM90.9051 29.5247C90.9051 27.6492 90.3214 26.0884 89.1541 24.8424C87.9868 23.5832 86.4785 22.9537 84.6291 22.9537C82.806 22.9537 81.3042 23.5832 80.1238 24.8424C78.9565 26.0884 78.3728 27.6492 78.3728 29.5247C78.3728 31.4003 78.9499 32.9545 80.1041 34.1874C81.2583 35.4203 82.7667 36.0368 84.6291 36.0368C86.4785 36.0368 87.9802 35.4203 89.1344 34.1874C90.3149 32.9283 90.9051 31.3741 90.9051 29.5247Z" fill="black"/>
<path d="M115.34 35.1908L116.56 39.5977C115.943 40.0043 115.15 40.3257 114.179 40.5618C113.209 40.7979 112.225 40.9159 111.228 40.9159C108.553 40.9159 106.52 40.1552 105.129 38.6337C103.739 37.1123 103.044 34.8629 103.044 31.8856V23.4652H98.4205V18.6844H103.044V12.92H108.533V18.6844H115.753V23.4652H108.533V31.8463C108.533 33.2234 108.821 34.2661 109.398 34.9744C109.976 35.6827 110.828 36.0368 111.956 36.0368C113.176 36.0368 114.304 35.7548 115.34 35.1908Z" fill="black"/>
<path d="M136.627 18.6844H142.155V40.365H136.627V37.2959C135.906 38.4763 134.935 39.3748 133.715 39.9912C132.496 40.6077 131.118 40.9159 129.584 40.9159C126.58 40.9159 124.069 39.8207 122.049 37.6304C120.029 35.44 119.019 32.7381 119.019 29.5247C119.006 27.9639 119.268 26.4753 119.806 25.0588C120.344 23.6423 121.078 22.4225 122.009 21.3994C122.954 20.3633 124.082 19.5501 125.393 18.9599C126.718 18.3697 128.115 18.0877 129.584 18.1139C131.118 18.1139 132.496 18.4221 133.715 19.0386C134.935 19.6419 135.906 20.5272 136.627 21.6945V18.6844ZM134.896 34.3055C136.05 33.0988 136.627 31.5052 136.627 29.5247C136.627 27.5442 136.05 25.9507 134.896 24.744C133.755 23.5242 132.279 22.9143 130.469 22.9143C128.659 22.9143 127.164 23.5439 125.984 24.803C124.856 26.049 124.292 27.6229 124.292 29.5247C124.292 31.4134 124.869 32.9873 126.023 34.2465C127.177 35.4925 128.659 36.1155 130.469 36.1155C132.279 36.1155 133.755 35.5121 134.896 34.3055Z" fill="black"/>
<path d="M162.518 35.1908L163.738 39.5977C163.121 40.0043 162.328 40.3257 161.357 40.5618C160.387 40.7979 159.403 40.9159 158.406 40.9159C155.73 40.9159 153.697 40.1552 152.307 38.6337C150.917 37.1123 150.222 34.8629 150.222 31.8856V23.4652H145.598V18.6844H150.222V12.92H155.711V18.6844H162.931V23.4652H155.711V31.8463C155.711 33.2234 155.999 34.2661 156.576 34.9744C157.153 35.6827 158.006 36.0368 159.134 36.0368C160.354 36.0368 161.482 35.7548 162.518 35.1908Z" fill="black"/>
<path d="M183.805 18.6844H189.333V40.365H183.805V37.2959C183.084 38.4763 182.113 39.3748 180.893 39.9912C179.673 40.6077 178.296 40.9159 176.762 40.9159C173.758 40.9159 171.247 39.8207 169.227 37.6304C167.207 35.44 166.197 32.7381 166.197 29.5247C166.184 27.9639 166.446 26.4753 166.984 25.0588C167.522 23.6423 168.256 22.4225 169.187 21.3994C170.132 20.3633 171.26 19.5501 172.571 18.9599C173.896 18.3697 175.293 18.0877 176.762 18.1139C178.296 18.1139 179.673 18.4221 180.893 19.0386C182.113 19.6419 183.084 20.5272 183.805 21.6945V18.6844ZM182.074 34.3055C183.228 33.0988 183.805 31.5052 183.805 29.5247C183.805 27.5442 183.228 25.9507 182.074 24.744C180.933 23.5242 179.457 22.9143 177.647 22.9143C175.837 22.9143 174.342 23.5439 173.161 24.803C172.033 26.049 171.469 27.6229 171.469 29.5247C171.469 31.4134 172.047 32.9873 173.201 34.2465C174.355 35.4925 175.837 36.1155 177.647 36.1155C179.457 36.1155 180.933 35.5121 182.074 34.3055Z" fill="black"/>
<path d="M194.803 39.8929C194.121 39.2239 193.78 38.3976 193.78 37.414C193.78 36.4303 194.121 35.604 194.803 34.935C195.485 34.253 196.337 33.912 197.36 33.912C198.396 33.912 199.262 34.253 199.957 34.935C200.652 35.604 201 36.4303 201 37.414C201 38.3976 200.652 39.2239 199.957 39.8929C199.262 40.5749 198.396 40.9159 197.36 40.9159C196.337 40.9159 195.485 40.5749 194.803 39.8929Z" fill="#31BDBD"/>
<path d="M121.854 52.5558L121.153 50.7191H117.474L116.772 52.5558H115.066L118.489 43.931H120.183L123.606 52.5558H121.854ZM117.998 49.3386H120.622L119.316 45.8819L117.998 49.3386Z" fill="black"/>
<path d="M126.241 43.931V52.5558H124.593V43.931H126.241Z" fill="black"/>
<path d="M130.405 48.2434C130.394 47.4106 130.578 46.65 130.958 45.9617C131.343 45.2696 131.873 44.7277 132.55 44.336C133.227 43.9405 133.972 43.7504 134.786 43.7656C135.569 43.7656 136.284 43.9424 136.931 44.2961C137.577 44.6497 138.093 45.1289 138.477 45.7335L137.068 46.5378C136.828 46.1462 136.511 45.8438 136.115 45.6309C135.72 45.4179 135.277 45.3114 134.786 45.3114C133.987 45.3114 133.331 45.5909 132.818 46.15C132.308 46.709 132.054 47.4068 132.054 48.2434C132.054 49.08 132.308 49.7779 132.818 50.3369C133.331 50.8959 133.987 51.1754 134.786 51.1754C135.269 51.1754 135.706 51.0689 136.098 50.856C136.49 50.6392 136.813 50.3369 137.068 49.949L138.477 50.7419C138.096 51.3541 137.585 51.8352 136.942 52.1851C136.303 52.5387 135.585 52.7156 134.786 52.7156C133.972 52.7308 133.227 52.5406 132.55 52.1451C131.873 51.7496 131.343 51.2077 130.958 50.5194C130.578 49.8273 130.394 49.0686 130.405 48.2434Z" fill="black"/>
<path d="M139.155 49.4128C139.144 48.8043 139.285 48.2453 139.578 47.7357C139.874 47.2224 140.281 46.8212 140.798 46.5321C141.315 46.2393 141.882 46.0967 142.498 46.1043C143.129 46.1043 143.7 46.2488 144.209 46.5378C144.723 46.8269 145.122 47.2243 145.407 47.73C145.693 48.232 145.835 48.7929 145.835 49.4128C145.835 49.8767 145.752 50.3141 145.584 50.7248C145.417 51.1317 145.187 51.4815 144.894 51.7743C144.601 52.0634 144.247 52.2915 143.833 52.4589C143.418 52.63 142.974 52.7156 142.498 52.7156C141.882 52.7232 141.315 52.5806 140.798 52.2877C140.281 51.9987 139.874 51.5994 139.578 51.0898C139.285 50.5803 139.144 50.0212 139.155 49.4128ZM144.318 49.4128C144.318 48.869 144.149 48.4164 143.81 48.0552C143.472 47.6901 143.034 47.5076 142.498 47.5076C141.97 47.5076 141.534 47.6901 141.192 48.0552C140.853 48.4164 140.684 48.869 140.684 49.4128C140.684 49.9566 140.852 50.4072 141.186 50.7647C141.521 51.1222 141.958 51.3009 142.498 51.3009C143.034 51.3009 143.47 51.1222 143.804 50.7647C144.147 50.3996 144.318 49.949 144.318 49.4128Z" fill="black"/>
<path d="M157.266 49.0021V52.5558H155.675V49.1162C155.675 48.5876 155.567 48.1864 155.35 47.9126C155.137 47.635 154.829 47.4962 154.426 47.4962C154.011 47.4962 153.667 47.6635 153.393 47.9981C153.123 48.329 152.988 48.753 152.988 49.2702V52.5558H151.391V49.1162C151.391 48.5876 151.283 48.1864 151.066 47.9126C150.853 47.635 150.545 47.4962 150.142 47.4962C149.72 47.4962 149.376 47.6635 149.109 47.9981C148.839 48.3366 148.704 48.7606 148.704 49.2702V52.5558H147.113V46.2697H148.704V47.1653C148.876 46.8383 149.121 46.5797 149.44 46.3895C149.76 46.1994 150.117 46.1043 150.513 46.1043C150.999 46.1043 151.422 46.2089 151.779 46.4181C152.14 46.6272 152.424 46.9314 152.629 47.3307C152.842 46.9467 153.131 46.6462 153.496 46.4295C153.861 46.2127 154.285 46.1043 154.768 46.1043C155.544 46.1043 156.154 46.3629 156.599 46.8801C157.044 47.3935 157.266 48.1008 157.266 49.0021Z" fill="black"/>
<path d="M165.503 49.4128C165.515 50.0174 165.387 50.5746 165.121 51.0841C164.855 51.5899 164.484 51.9892 164.009 52.282C163.537 52.5787 163.014 52.7232 162.44 52.7156C161.992 52.7156 161.59 52.6243 161.237 52.4417C160.887 52.2592 160.607 51.9968 160.398 51.6546V55.0429H158.807V46.2697H160.398V47.1539C160.607 46.8116 160.889 46.5512 161.242 46.3724C161.596 46.1937 161.995 46.1043 162.44 46.1043C163.011 46.0929 163.534 46.2355 164.009 46.5321C164.484 46.825 164.855 47.2281 165.121 47.7414C165.387 48.251 165.515 48.8081 165.503 49.4128ZM163.986 49.4128C163.986 48.8614 163.817 48.405 163.478 48.0438C163.136 47.6787 162.705 47.4962 162.184 47.4962C161.659 47.4962 161.231 47.673 160.9 48.0267C160.573 48.3765 160.41 48.8386 160.41 49.4128C160.41 49.987 160.573 50.4491 160.9 50.7989C161.231 51.1488 161.659 51.3237 162.184 51.3237C162.708 51.3237 163.14 51.1431 163.478 50.7818C163.817 50.4167 163.986 49.9604 163.986 49.4128Z" fill="black"/>
<path d="M171.561 46.2697H173.164V52.5558H171.561V51.666C171.352 52.0082 171.071 52.2687 170.717 52.4475C170.363 52.6262 169.964 52.7156 169.519 52.7156C168.648 52.7156 167.92 52.398 167.335 51.7629C166.749 51.1279 166.456 50.3445 166.456 49.4128C166.452 48.9603 166.528 48.5286 166.684 48.1179C166.84 47.7072 167.053 47.3536 167.323 47.0569C167.597 46.7565 167.924 46.5207 168.304 46.3496C168.688 46.1785 169.093 46.0967 169.519 46.1043C169.964 46.1043 170.363 46.1937 170.717 46.3724C171.071 46.5474 171.352 46.804 171.561 47.1425V46.2697ZM171.059 50.7989C171.394 50.4491 171.561 49.987 171.561 49.4128C171.561 48.8386 171.394 48.3765 171.059 48.0267C170.729 47.673 170.301 47.4962 169.776 47.4962C169.251 47.4962 168.818 47.6787 168.475 48.0438C168.148 48.405 167.985 48.8614 167.985 49.4128C167.985 49.9604 168.152 50.4167 168.487 50.7818C168.821 51.1431 169.251 51.3237 169.776 51.3237C170.301 51.3237 170.729 51.1488 171.059 50.7989Z" fill="black"/>
<path d="M180.939 49.0021V52.5558H179.336V49.1162C179.336 48.58 179.216 48.1769 178.977 47.9069C178.737 47.6331 178.386 47.4962 177.922 47.4962C177.458 47.4962 177.075 47.6616 176.775 47.9924C176.475 48.3195 176.324 48.7454 176.324 49.2702V52.5558H174.733V46.2697H176.324V47.1653C176.507 46.8383 176.771 46.5797 177.117 46.3895C177.467 46.1994 177.861 46.1043 178.298 46.1043C179.119 46.1043 179.764 46.3591 180.232 46.8687C180.703 47.3783 180.939 48.0894 180.939 49.0021Z" fill="black"/>
<path d="M186.849 46.2697H188.532L185.805 52.6699C185.39 53.6244 184.959 54.2785 184.51 54.6322C184.057 55.0049 183.544 55.1912 182.97 55.1912C182.449 55.1912 181.974 55.0866 181.544 54.8775L181.903 53.594C182.223 53.7271 182.538 53.7937 182.85 53.7937C183.181 53.7937 183.457 53.7081 183.677 53.537C183.898 53.3658 184.09 53.0768 184.253 52.6699L184.299 52.5558L181.498 46.2697H183.215L185.069 50.6506L186.849 46.2697Z" fill="black"/>
<path d="M18.5042 9.54274C16.4222 10.7727 14.7793 12.1918 13.5227 13.7103C13.7204 13.9315 13.9186 14.1525 14.1168 14.3736C16.2569 16.7608 18.3942 19.145 19.9027 21.653C20.9151 23.3361 21.6593 25.0968 21.9524 26.9813L23.356 22.6427C24.1084 19.3611 23.272 16.5051 21.6187 13.7563C20.7556 12.3214 19.6821 10.9336 18.5042 9.54274Z" fill="#31BDBD"/>
<path d="M24.695 18.5037L28.7599 5.93897C25.0895 6.60727 22.0491 7.65325 19.5655 8.9526C20.7173 10.3245 21.7808 11.7131 22.6402 13.1418C23.6586 14.835 24.4055 16.6065 24.695 18.5037Z" fill="#31BDBD"/>
<path d="M17.5553 40.5728L20.6535 30.9962C21.3439 27.7806 20.508 24.9721 18.8812 22.2674C17.4369 19.8663 15.4035 17.5971 13.2774 15.2244C13.1137 15.0418 12.9495 14.8585 12.785 14.6745C10.2019 18.3371 9.69704 22.4465 10.5799 25.833C11.1704 28.0976 12.367 29.5775 13.6071 31.1112C15.3926 33.3193 17.2683 35.6389 17.5553 40.5728Z" fill="#31BDBD"/>
<path d="M25.1468 36.2147C24.712 35.8704 24.3311 35.4619 24.018 35.004C22.9014 34.9828 21.773 34.8398 20.6501 34.566L18.5812 40.9062C20.8914 38.0867 23.0648 36.9256 25.1468 36.2147Z" fill="#31BDBD"/>
<path d="M24.1656 23.7935C24.1731 23.7938 24.1805 23.794 24.188 23.7942C26.5566 23.8591 28.5293 21.9916 28.5942 19.623C28.6358 18.1042 27.883 16.7483 26.713 15.9536L26.2426 17.4015C26.8292 17.942 27.1878 18.7237 27.1643 19.5838C27.1248 21.0242 26.0269 22.1866 24.6358 22.3465L24.1656 23.7935Z" fill="#31BDBD"/>
<path d="M21.0338 33.4323C21.8196 33.6178 22.6079 33.734 23.3919 33.7849C23.3045 33.5443 23.2336 33.2961 23.1803 33.0415C23.1746 33.0147 23.1692 32.9877 23.164 32.9607C23.1388 32.8307 23.1183 32.6991 23.1025 32.5661C22.5369 32.5135 21.9696 32.4234 21.4036 32.2942L21.0338 33.4323Z" fill="#31BDBD"/>
<path d="M21.7736 31.1554C22.2128 31.2513 22.6526 31.3215 23.0914 31.3669C23.2857 29.4075 24.5067 27.7625 26.1972 26.9592L25.5586 25.0887C25.1059 25.19 24.6335 25.2374 24.1487 25.224C24.001 25.22 23.8547 25.2104 23.7102 25.1954L21.7736 31.1554Z" fill="#31BDBD"/>
<path d="M26.6882 24.7077L27.3234 26.5685C27.7639 26.4681 28.224 26.4208 28.6965 26.4338C30.2086 26.4752 31.5609 27.125 32.5252 28.1425C32.7111 27.966 32.8916 27.783 33.0664 27.5939C31.94 26.5576 31.2512 25.0579 31.2964 23.4076C31.3055 23.0767 31.3437 22.7535 31.4085 22.4403L29.5336 21.8311C28.9665 23.1048 27.9489 24.1292 26.6882 24.7077Z" fill="#31BDBD"/>
<path d="M29.9015 20.6972C29.942 20.5061 29.9729 20.3113 29.9938 20.1135C30.0095 19.9649 30.0196 19.8144 30.0238 19.6624C30.0532 18.5874 29.7841 17.5738 29.2918 16.7006L30.9015 15.5672C31.8729 16.6785 33.2877 17.3965 34.8796 17.4402C35.2737 17.451 35.6594 17.4199 36.0321 17.351C36.0786 17.6026 36.117 17.8561 36.1472 18.1112C34.2021 18.3335 32.5555 19.5781 31.7764 21.3064L29.9015 20.6972Z" fill="#31BDBD"/>
<path d="M27.1684 14.5519C27.7088 14.8649 28.1925 15.2635 28.6017 15.7287L30.2187 14.5901C29.7675 13.7666 29.5221 12.8162 29.5497 11.81C29.5758 10.8559 29.8443 9.96533 30.2944 9.19577C29.9129 8.97474 29.5161 8.77311 29.1047 8.59279L27.1684 14.5519Z" fill="#31BDBD"/>
<path d="M33.7674 30.2372C33.6383 29.8354 33.4641 29.4533 33.2504 29.0972C33.5213 28.8449 33.7822 28.5807 34.0321 28.3047C34.3909 28.5126 34.7758 28.681 35.1809 28.8041C34.7421 29.317 34.2693 29.7955 33.7674 30.2372Z" fill="#31BDBD"/>
<path d="M38.5693 18.3757C38.1802 18.2411 37.7708 18.149 37.3465 18.1051C37.3065 17.735 37.2508 17.3678 37.1799 17.0045C37.5672 16.8391 37.9319 16.6303 38.2678 16.384C38.4144 17.0369 38.5157 17.7023 38.5693 18.3757Z" fill="#31BDBD"/>
<path d="M31.9604 7.41728C31.6132 7.65232 31.2941 7.92627 31.0095 8.23295C30.5209 7.94298 30.0088 7.68221 29.4747 7.45396L29.8445 6.31592C30.5896 6.62778 31.2961 6.99724 31.9604 7.41728Z" fill="#31BDBD"/>
<path fill-rule="evenodd" clip-rule="evenodd" d="M33.7084 16.0432C35.9626 16.7756 38.3836 15.542 39.116 13.2879C39.8484 11.0338 38.6148 8.61274 36.3607 7.88033C34.1066 7.14793 31.6856 8.38151 30.9532 10.6356C30.2208 12.8897 31.4543 15.3108 33.7084 16.0432ZM34.1505 14.6827C35.6532 15.171 37.2673 14.3486 37.7555 12.8459C38.2438 11.3431 37.4214 9.7291 35.9187 9.24083C34.4159 8.75256 32.8019 9.57495 32.3137 11.0777C31.8254 12.5804 32.6478 14.1945 34.1505 14.6827Z" fill="#31BDBD"/>
<path fill-rule="evenodd" clip-rule="evenodd" d="M35.4553 27.6408C37.7094 28.3732 40.1304 27.1397 40.8628 24.8855C41.5952 22.6314 40.3617 20.2104 38.1075 19.478C35.8534 18.7456 33.4324 19.9792 32.7 22.2333C31.9676 24.4874 33.2012 26.9084 35.4553 27.6408ZM35.8974 26.2802C37.4002 26.7684 39.0142 25.946 39.5025 24.4433C39.9907 22.9406 39.1683 21.3265 37.6656 20.8383C36.1629 20.35 34.5488 21.1724 34.0606 22.6751C33.5723 24.1779 34.3947 25.7919 35.8974 26.2802Z" fill="#31BDBD"/>
<path fill-rule="evenodd" clip-rule="evenodd" d="M27.2252 35.9968C29.4793 36.7292 31.9003 35.4956 32.6327 33.2415C33.3651 30.9874 32.1315 28.5664 29.8774 27.8339C27.6233 27.1015 25.2023 28.3351 24.4699 30.5892C23.7375 32.8433 24.9711 35.2644 27.2252 35.9968ZM27.6672 34.6362C29.17 35.1245 30.784 34.3021 31.2723 32.7993C31.7605 31.2966 30.9382 29.6826 29.4354 29.1943C27.9327 28.706 26.3186 29.5284 25.8304 31.0312C25.3421 32.5339 26.1645 34.1479 27.6672 34.6362Z" fill="#31BDBD"/>
</svg>
